HIERARCHY
ROOT root     
{
	OFFSET 0.0000 0.0000 0.0000
	CHANNELS 6 Xposition Yposition Zposition Zrotation Yrotation Xrotation
	JOINT pelvis   
	{
		OFFSET 0.0000 0.0000 0.0000
		CHANNELS 3 Zrotation Yrotation Xrotation
		JOINT thorax   
		{
			OFFSET 0.0000 23.0750 -5.0000
			CHANNELS 3 Zrotation Yrotation Xrotation
			JOINT rclavicle
			{
				OFFSET 0.0000 28.0009 0.0000
				CHANNELS 3 Zrotation Yrotation Xrotation
				JOINT rhumerus 
				{
					OFFSET -18.5725 5.5939 0.0000
					CHANNELS 3 Zrotation Yrotation Xrotation
					JOINT rradius  
					{
						OFFSET -24.8459 0.0000 0.0000
						CHANNELS 3 Zrotation Yrotation Xrotation
						JOINT rhand    
						{
							OFFSET -24.5477 0.0000 0.0000
							CHANNELS 3 Zrotation Yrotation Xrotation
							End Site
							{
								OFFSET -8.1826 0.0000 0.0000
							}
						}
					}
				}
			}
			JOINT lclavicle
			{
				OFFSET 0.0000 28.0009 0.0000
				CHANNELS 3 Zrotation Yrotation Xrotation
				JOINT lhumerus 
				{
					OFFSET 18.5725 5.5939 0.0000
					CHANNELS 3 Zrotation Yrotation Xrotation
					JOINT lradius  
					{
						OFFSET 24.8459 0.0000 0.0000
						CHANNELS 3 Zrotation Yrotation Xrotation
						JOINT lhand    
						{
							OFFSET 24.5477 0.0000 0.0000
							CHANNELS 3 Zrotation Yrotation Xrotation
							End Site
							{
								OFFSET 8.1826 0.0000 0.0000
							}
						}
					}
				}
			}
			JOINT head     
			{
				OFFSET 0.0000 35.2030 0.0000
				CHANNELS 3 Zrotation Yrotation Xrotation
				End Site
				{
					OFFSET 0.0000 11.7343 0.0000
				}
			}
		}
		JOINT rfemur   
		{
			OFFSET -8.2817 0.0000 0.0000
			CHANNELS 3 Zrotation Yrotation Xrotation
			JOINT rtibia   
			{
				OFFSET 0.0000 -43.3627 0.0000
				CHANNELS 3 Zrotation Yrotation Xrotation
				JOINT rfoot    
				{
					OFFSET 0.0000 -38.2947 0.0000
					CHANNELS 3 Zrotation Yrotation Xrotation
					JOINT rtoes    
					{
						OFFSET 0.0000 0.0000 16.6054
						CHANNELS 3 Zrotation Yrotation Xrotation
						End Site
						{
							OFFSET 0.0000 0.0000 5.5351
						}
					}
				}
			}
		}
		JOINT lfemur   
		{
			OFFSET 8.2817 0.0000 0.0000
			CHANNELS 3 Zrotation Yrotation Xrotation
			JOINT ltibia   
			{
				OFFSET 0.0000 -43.3627 0.0000
				CHANNELS 3 Zrotation Yrotation Xrotation
				JOINT lfoot    
				{
					OFFSET 0.0000 -38.2947 0.0000
					CHANNELS 3 Zrotation Yrotation Xrotation
					JOINT ltoes    
					{
						OFFSET 0.0000 0.0000 16.6054
						CHANNELS 3 Zrotation Yrotation Xrotation
						End Site
						{
							OFFSET 0.0000 0.0000 5.5351
						}
					}
				}
			}
		}
	}
}
MOTION
Frames: 13
Frame Time: .0333333
-120.32 73.688 -3.0787 -126.01 86.8297 -98.3231 0 -0 0 -6.74868 8.85968 15.106 20.7285 -8.76375 -4.97646e-05 54.3364 0.955393 6.17514 -180 77.6577 -180 -7.83894 2.87761 -0.197199 -14.1161 22.6056 -7.81971e-05 -56.4365 33.2271 13.0828 0 -74.0292 0 -5.52576 4.08358 -0.197203 6.52692 -8.55857 -21.759 3.46341 -13.8095 -9.41169 -0 -0 44.6873 4.16513e-06 5.68846 -3.33787 -0.332301 1.23931e-06 -81.6005 -6.81112 4.67434 -76.2067 -0 -0 57.1409 6.47645e-06 10.866 1.67225 0.320897 7.7865e-07 -13.0885 
-119.16 73.581 -3.142 -125.45 86.7091 -97.7868 0 -0 0 -7.06633 8.85727 15.0283 20.813 -8.76841 -1.01269e-05 54.9983 0.686187 6.20494 -180 77.8717 -180 -7.79517 2.91657 -0.198793 -14.2472 22.6338 9.09589e-05 -56.2215 32.9317 13.0501 -1.25302e-06 -74.2354 9.48275e-07 -5.48323 3.89905 -0.186798 6.87119 -8.63778 -21.8705 3.35862 -13.7031 -9.16998 -0 -0 45.352 1.58526e-06 5.73137 -1.37948 -0.138401 9.44933e-07 -82.3032 -6.65672 4.67181 -76.0306 -0 -0 58.4778 5.10008e-07 10.9518 0.417104 0.0806993 -2.20818e-07 -12.0819 
-118.03 73.484 -3.2098 -125.232 86.5979 -97.5741 0 -0 0 -7.38322 8.8025 14.9442 20.8961 -8.78455 -1.21182e-05 55.6626 0.446558 6.28994 180 78.1895 180 -7.72814 2.94527 -0.198996 -14.4021 22.6613 1.07288e-06 -56.0398 32.5588 12.9723 0 -74.3987 0 -5.42086 3.71225 -0.175801 7.2058 -8.69398 -21.9636 3.28864 -13.6314 -9.07776 -0 -0 46.1997 -1.47066e-07 5.63291 0.566 0.0558003 -7.43424e-07 -82.3834 -6.4759 4.61601 -75.8155 -0 -0 59.7375 -3.64636e-07 11.0952 -0.861596 -0.169004 -8.39521e-07 -11.3584 
-116.91 73.395 -3.2816 -125.339 86.4852 -97.668 0 -0 0 -7.69806 8.69922 14.86 20.9827 -8.80754 -5.95761e-05 56.3173 0.228615 6.42003 -180 78.5934 -180 -7.63171 2.9682 -0.198 -14.5762 22.6808 0.000113431 -55.8928 32.1028 12.8465 -1.27184e-06 -74.5032 9.67195e-07 -5.33659 3.53233 -0.164702 7.53464 -8.73052 -22.0545 3.25406 -13.6039 -9.14053 -0 -0 47.2318 5.57636e-07 5.35974 2.43575 0.228404 -1.05401e-06 -81.7969 -6.27059 4.50926 -75.5757 -0 -0 60.9235 -4.30727e-06 11.2997 -2.11546 -0.422594 4.70628e-07 -10.9331 
-115.82 73.319 -3.358 -125.77 86.3753 -98.0672 0 -0 0 -8.01507 8.55186 14.7815 21.0785 -8.82591 6.40807e-06 56.9506 0.0188653 6.58091 180 79.0806 180 -7.49976 2.99187 -0.1961 -14.7809 22.6744 5.80693e-05 -55.7801 31.5784 12.6549 9.71983e-07 -74.5694 -1.2766e-06 -5.22651 3.36873 -0.153801 7.85973 -8.74961 -22.1529 3.24767 -13.6315 -9.36241 -0 -0 48.4501 3.55918e-06 4.88472 4.17251 0.356298 1.09618e-06 -80.5689 -6.05126 4.35911 -75.3163 -0 -0 62.0355 2.16888e-05 11.5615 -3.30766 -0.676295 1.16912e-06 -10.794 
-114.75 73.255 -3.4382 -126.407 86.2776 -98.658 0 -0 0 -8.33082 8.36942 14.7164 21.1865 -8.83199 1.88503e-05 57.5529 -0.192019 6.76106 -180 79.6256 -180 -7.32874 3.02304 -0.193698 -15.0187 22.6277 0.000125065 -55.7005 30.9841 12.3972 0 -74.5954 0 -5.08699 3.23045 -0.143502 8.18041 -8.75355 -22.2678 3.26792 -13.7133 -9.74082 -0 -0 49.8447 -5.06273e-06 4.17887 5.70861 0.416402 2.07193e-06 -78.7438 -5.82972 4.18149 -75.0433 -0 -0 63.0725 7.71077e-06 11.8696 -4.41627 -0.927202 2.37205e-08 -10.905 
-113.71 73.206 -3.5195 -127.143 86.1894 -99.335 0 -0 0 -8.63172 8.1647 14.6761 21.3096 -8.82645 -1.8571e-05 58.1134 -0.402283 6.9539 -180 80.2336 -180 -7.11829 3.06746 -0.190799 -15.2786 22.5532 0.000104518 -55.6523 30.2927 12.0989 9.71586e-07 -74.567 -1.27619e-06 -4.91494 3.1254 -0.134198 8.49017 -8.74603 -22.406 3.32321 -13.8337 -10.2642 -0 -0 51.3945 -2.0626e-06 3.2193 6.97807 0.391497 4.95849e-06 -76.3819 -5.61328 4.00091 -74.7613 -0 -0 64.036 2.83785e-05 12.203 -5.43358 -1.17321 -5.71606e-06 -11.2157 
-112.69 73.171 -3.6006 -127.843 86.109 -99.9698 0 -0 0 -8.90908 7.9489 14.6678 21.4457 -8.80593 1.83747e-05 58.6265 -0.613061 7.15346 180 80.8957 180 -6.86959 3.12986 -0.187901 -15.5647 22.4465 9.99626e-05 -55.6289 29.4982 11.7721 0 -74.4722 0 -4.70795 3.05967 -0.1258 8.78076 -8.72665 -22.5646 3.41409 -13.9796 -10.9215 -0 -0 53.0763 -8.93794e-06 2.00316 7.93876 0.276807 2.42728e-06 -73.5959 -5.41369 3.84144 -74.4668 -0 -0 64.9213 -1.30561e-05 12.5405 -6.36504 -1.41258 -2.2437e-06 -11.6646 
-111.7 73.153 -3.6822 -128.41 86.0291 -100.475 0 -0 0 -9.16814 7.72875 14.6928 21.5948 -8.75498 1.18876e-05 59.0916 -0.83732 7.34839 180 81.6179 180 -6.5824 3.2148 -0.1849 -15.9005 22.2754 3.33376e-05 -55.613 28.6439 11.3883 0 -74.3528 0 -4.46403 3.03782 -0.118402 9.04495 -8.69073 -22.7305 3.52899 -14.1473 -11.7024 -0 -0 54.8665 4.14191e-07 0.551401 8.56691 0.0820997 4.64497e-07 -70.5004 -5.25029 3.72348 -74.1514 -0 -0 65.7241 3.06309e-05 12.8604 -7.22227 -1.64413 -4.49657e-06 -12.1917 
-110.74 73.151 -3.7615 -128.663 85.9595 -100.672 0 -0 0 -9.38964 7.51548 14.7583 21.7495 -8.68619 -2.08822e-05 59.5087 -1.05673 7.54692 180 82.4073 180 -6.26538 3.32153 -0.1818 -16.2691 22.0708 2.81129e-05 -55.6011 27.684 10.9933 0 -74.1764 0 -4.18533 3.06102 -0.111898 9.26986 -8.63704 -22.8969 3.67825 -14.3111 -12.5884 -0 -0 56.73 1.58237e-06 -1.1072 8.84524 -0.170304 -2.55998e-06 -67.1835 -5.12359 3.67156 -73.8124 -0 -0 66.4467 2.73903e-05 13.1415 -8.02657 -1.86721 -6.71942e-06 -12.7408 
-109.79 73.166 -3.8388 -128.553 85.8897 -100.52 0 -0 0 -9.57352 7.31315 14.8659 21.9051 -8.59775 9.68885e-06 59.8807 -1.26863 7.75015 -180 83.2753 -180 -5.92629 3.4474 -0.1785 -16.6785 21.8276 -5.22197e-05 -55.5847 26.6313 10.5869 1.31423e-06 -73.9591 -1.74534e-06 -3.87513 3.12845 -0.105899 9.44513 -8.55991 -23.0405 3.85481 -14.4574 -13.5669 -0 -0 58.6375 -1.05517e-06 -2.91766 8.77949 -0.445699 1.178e-06 -63.7163 -5.04098 3.70001 -73.4369 -0 -0 67.0861 -2.85021e-05 13.3703 -8.79615 -2.08163 -4.88618e-06 -13.2683 
-108.86 73.197 -3.9142 -127.994 85.8174 -99.94 0 -0 0 -9.71776 7.12383 15.0125 22.0535 -8.49244 1.29582e-05 60.2157 -1.46692 7.96236 -180 84.2291 -180 -5.57528 3.58696 -0.174702 -17.1303 21.548 -0.00013191 -55.5516 25.4943 10.1703 1.29031e-06 -73.7013 -1.72157e-06 -3.54046 3.23688 -0.100102 9.56286 -8.45445 -23.1443 4.05457 -14.5722 -14.6269 -0 -0 60.5585 6.20531e-07 -4.81338 8.38758 -0.703697 5.91407e-07 -60.1422 -5.00449 3.81701 -73.0211 -0 -0 67.644 1.46751e-05 13.5348 -9.54954 -2.28699 5.37732e-06 -13.7408 
-107.95 73.243 -3.9884 -126.966 85.7501 -98.9084 0 -0 0 -9.8237 6.94596 15.1916 22.1897 -8.37514 1.62667e-05 60.5196 -1.64465 8.18931 180 85.2905 180 -5.22533 3.73154 -0.170299 -17.6215 21.2378 2.38846e-05 -55.4994 24.2766 9.74748 0 -73.4156 0 -3.18871 3.38147 -0.0940993 9.6181 -8.31631 -23.1884 4.27059 -14.6475 -15.7563 -0 -0 62.4692 -2.34794e-06 -6.71849 7.70017 -0.904287 -1.08977e-07 -56.4869 -5.01229 4.02304 -72.5592 -0 -0 68.1224 7.54295e-05 13.6352 -10.2987 -2.48328 1.40645e-05 -14.1398 
